<mxfile host="app.diagrams.net" modified="2024-07-17T00:02:33.561Z" agent="Mozilla/5.0 (Windows NT 10.0; Win64; x64) AppleWebKit/537.36 (KHTML, like Gecko) Chrome/124.0.0.0 Whale/3.26.244.21 Safari/537.36" etag="HpPYu1ui7lF3NjoqXv-Z" version="24.5.5" type="github">
  <diagram name="Page-1" id="74e2e168-ea6b-b213-b513-2b3c1d86103e">
    <mxGraphModel dx="1388" dy="766" grid="1" gridSize="10" guides="1" tooltips="1" connect="1" arrows="1" fold="1" page="1" pageScale="1" pageWidth="1100" pageHeight="850" background="none" math="0" shadow="0">
      <root>
        <mxCell id="0" />
        <mxCell id="1" parent="0" />
        <mxCell id="jvie0F8ZhcPAdLIV_a5Z-29" value="" style="edgeStyle=orthogonalEdgeStyle;rounded=0;orthogonalLoop=1;jettySize=auto;html=1;" edge="1" parent="1" source="jvie0F8ZhcPAdLIV_a5Z-27" target="jvie0F8ZhcPAdLIV_a5Z-28">
          <mxGeometry relative="1" as="geometry" />
        </mxCell>
        <mxCell id="jvie0F8ZhcPAdLIV_a5Z-27" value="send onvif protocol" style="rounded=1;whiteSpace=wrap;html=1;" vertex="1" parent="1">
          <mxGeometry x="60" y="40" width="120" height="60" as="geometry" />
        </mxCell>
        <mxCell id="jvie0F8ZhcPAdLIV_a5Z-31" value="" style="edgeStyle=orthogonalEdgeStyle;rounded=0;orthogonalLoop=1;jettySize=auto;html=1;" edge="1" parent="1" source="jvie0F8ZhcPAdLIV_a5Z-28" target="jvie0F8ZhcPAdLIV_a5Z-30">
          <mxGeometry relative="1" as="geometry" />
        </mxCell>
        <mxCell id="jvie0F8ZhcPAdLIV_a5Z-28" value="recv" style="rounded=1;whiteSpace=wrap;html=1;" vertex="1" parent="1">
          <mxGeometry x="260" y="40" width="120" height="60" as="geometry" />
        </mxCell>
        <mxCell id="jvie0F8ZhcPAdLIV_a5Z-33" value="" style="edgeStyle=orthogonalEdgeStyle;rounded=0;orthogonalLoop=1;jettySize=auto;html=1;" edge="1" parent="1" source="jvie0F8ZhcPAdLIV_a5Z-30" target="jvie0F8ZhcPAdLIV_a5Z-32">
          <mxGeometry relative="1" as="geometry" />
        </mxCell>
        <mxCell id="jvie0F8ZhcPAdLIV_a5Z-30" value="parse" style="whiteSpace=wrap;html=1;rounded=1;" vertex="1" parent="1">
          <mxGeometry x="460" y="40" width="120" height="60" as="geometry" />
        </mxCell>
        <mxCell id="jvie0F8ZhcPAdLIV_a5Z-37" style="edgeStyle=orthogonalEdgeStyle;rounded=0;orthogonalLoop=1;jettySize=auto;html=1;entryX=1;entryY=0.5;entryDx=0;entryDy=0;" edge="1" parent="1" source="jvie0F8ZhcPAdLIV_a5Z-32" target="jvie0F8ZhcPAdLIV_a5Z-30">
          <mxGeometry relative="1" as="geometry">
            <mxPoint x="680" y="70" as="targetPoint" />
            <Array as="points">
              <mxPoint x="681" y="210" />
              <mxPoint x="681" y="70" />
            </Array>
          </mxGeometry>
        </mxCell>
        <mxCell id="jvie0F8ZhcPAdLIV_a5Z-40" value="" style="edgeStyle=orthogonalEdgeStyle;rounded=0;orthogonalLoop=1;jettySize=auto;html=1;" edge="1" parent="1" source="jvie0F8ZhcPAdLIV_a5Z-32" target="jvie0F8ZhcPAdLIV_a5Z-39">
          <mxGeometry relative="1" as="geometry" />
        </mxCell>
        <mxCell id="jvie0F8ZhcPAdLIV_a5Z-32" value="onvif camera??" style="rhombus;whiteSpace=wrap;html=1;rounded=1;" vertex="1" parent="1">
          <mxGeometry x="430" y="170" width="180" height="80" as="geometry" />
        </mxCell>
        <mxCell id="jvie0F8ZhcPAdLIV_a5Z-38" value="No" style="text;html=1;align=center;verticalAlign=middle;resizable=0;points=[];autosize=1;strokeColor=none;fillColor=none;" vertex="1" parent="1">
          <mxGeometry x="620" y="178" width="40" height="30" as="geometry" />
        </mxCell>
        <mxCell id="jvie0F8ZhcPAdLIV_a5Z-43" value="" style="edgeStyle=orthogonalEdgeStyle;rounded=0;orthogonalLoop=1;jettySize=auto;html=1;" edge="1" parent="1" source="jvie0F8ZhcPAdLIV_a5Z-39" target="jvie0F8ZhcPAdLIV_a5Z-42">
          <mxGeometry relative="1" as="geometry" />
        </mxCell>
        <mxCell id="jvie0F8ZhcPAdLIV_a5Z-39" value="Add detection list" style="whiteSpace=wrap;html=1;rounded=1;" vertex="1" parent="1">
          <mxGeometry x="460" y="340" width="120" height="60" as="geometry" />
        </mxCell>
        <mxCell id="jvie0F8ZhcPAdLIV_a5Z-41" value="Yes" style="text;html=1;align=center;verticalAlign=middle;resizable=0;points=[];autosize=1;strokeColor=none;fillColor=none;" vertex="1" parent="1">
          <mxGeometry x="520" y="278" width="40" height="30" as="geometry" />
        </mxCell>
        <mxCell id="jvie0F8ZhcPAdLIV_a5Z-44" style="edgeStyle=orthogonalEdgeStyle;rounded=0;orthogonalLoop=1;jettySize=auto;html=1;" edge="1" parent="1" source="jvie0F8ZhcPAdLIV_a5Z-42">
          <mxGeometry relative="1" as="geometry">
            <mxPoint x="400" y="70" as="targetPoint" />
          </mxGeometry>
        </mxCell>
        <mxCell id="jvie0F8ZhcPAdLIV_a5Z-42" value="another data?" style="rhombus;whiteSpace=wrap;html=1;rounded=1;" vertex="1" parent="1">
          <mxGeometry x="430" y="470" width="180" height="80" as="geometry" />
        </mxCell>
        <mxCell id="jvie0F8ZhcPAdLIV_a5Z-45" value="Yes" style="text;html=1;align=center;verticalAlign=middle;resizable=0;points=[];autosize=1;strokeColor=none;fillColor=none;" vertex="1" parent="1">
          <mxGeometry x="380" y="508" width="40" height="30" as="geometry" />
        </mxCell>
      </root>
    </mxGraphModel>
  </diagram>
</mxfile>
